<?xml version="1.0" encoding="utf-8"?>
<!-- Generator: Adobe Illustrator 19.0.0, SVG Export Plug-In . SVG Version: 6.00 Build 0)  -->
<svg version="1.1" id="Calque_1" xmlns="http://www.w3.org/2000/svg" xmlns:xlink="http://www.w3.org/1999/xlink" x="0px" y="0px"
	 viewBox="0 0 100 100" enable-background="new 0 0 100 100" xml:space="preserve">
<g id="XMLID_308_">
	<path id="XMLID_562_" fill="#01224B" d="M50,8c23.16,0,42,18.84,42,42S73.16,92,50,92S8,73.16,8,50S26.84,8,50,8 M50,0
		C22.39,0,0,22.39,0,50s22.39,50,50,50s50-22.39,50-50S77.61,0,50,0L50,0z"/>
</g>
<g id="XMLID_296_">
	<g id="XMLID_298_">
		<path id="XMLID_504_" fill="#01224B" d="M66.66,63.28h-24.4c-1.75,0-3.29-1.13-3.82-2.8L31.06,37H26c-2.21,0-4-1.79-4-4
			s1.79-4,4-4h8c1.75,0,3.29,1.13,3.82,2.8l7.38,23.48h18.54l3.89-12.2l-18.15,0c-2.21,0-4-1.79-4-4s1.79-4,4-4l0,0l23.63,0
			c1.28,0,2.48,0.61,3.23,1.64c0.75,1.03,0.97,2.36,0.58,3.58l-6.44,20.2C69.94,62.15,68.4,63.28,66.66,63.28z"/>
	</g>
	<g id="XMLID_355_">
		<circle id="XMLID_558_" fill="#D61A0E" cx="62.26" cy="72.19" r="4.31"/>
	</g>
	<g id="XMLID_357_">
		<circle id="XMLID_556_" fill="#D61A0E" cx="43.26" cy="72.19" r="4.31"/>
	</g>
</g>
</svg>
