<?xml version="1.0" encoding="utf-8"?>
<!-- Generator: Adobe Illustrator 19.0.0, SVG Export Plug-In . SVG Version: 6.00 Build 0)  -->
<svg version="1.1" id="Calque_1" xmlns="http://www.w3.org/2000/svg" xmlns:xlink="http://www.w3.org/1999/xlink" x="0px" y="0px"
	 viewBox="0 0 100 100" enable-background="new 0 0 100 100" xml:space="preserve">
<g id="XMLID_500_">
	<g id="XMLID_506_">
		<path id="XMLID_565_" fill="#01224B" d="M50,8c23.16,0,42,18.84,42,42S73.16,92,50,92S8,73.16,8,50S26.84,8,50,8 M50,0
			C22.39,0,0,22.39,0,50s22.39,50,50,50s50-22.39,50-50S77.61,0,50,0L50,0z"/>
	</g>
	<g id="XMLID_501_">
		<g id="XMLID_505_">
			<path id="XMLID_223_" fill="#01224B" d="M50.67,53.75c-7.31,0-13.25-5.94-13.25-13.25s5.94-13.25,13.25-13.25
				s13.25,5.94,13.25,13.25S57.97,53.75,50.67,53.75z M50.67,34.25c-3.45,0-6.25,2.8-6.25,6.25s2.8,6.25,6.25,6.25
				s6.25-2.8,6.25-6.25S54.11,34.25,50.67,34.25z"/>
		</g>
		<g id="XMLID_502_">
			<path id="XMLID_211_" fill="#01224B" d="M69.67,68.75H30.33c-1.93,0-3.5-1.57-3.5-3.5c0-10.2,8.3-18.5,18.5-18.5h9.33
				c10.2,0,18.5,8.3,18.5,18.5C73.17,67.18,71.6,68.75,69.67,68.75z M34.38,61.75h31.24c-1.48-4.63-5.83-8-10.96-8h-9.33
				C40.21,53.75,35.86,57.12,34.38,61.75z"/>
		</g>
	</g>
</g>
</svg>
