<?xml version="1.0" encoding="utf-8"?>
<!-- Generator: Adobe Illustrator 19.0.0, SVG Export Plug-In . SVG Version: 6.00 Build 0)  -->
<svg version="1.1" id="Calque_1" xmlns="http://www.w3.org/2000/svg" xmlns:xlink="http://www.w3.org/1999/xlink" x="0px" y="0px"
	 viewBox="0 0 100 100" enable-background="new 0 0 100 100" xml:space="preserve">
<g id="XMLID_134_">
	<path id="XMLID_3_" fill="#01224B" d="M50,8c23.16,0,42,18.84,42,42S73.16,92,50,92S8,73.16,8,50S26.84,8,50,8 M50,0
		C22.39,0,0,22.39,0,50s22.39,50,50,50s50-22.39,50-50S77.61,0,50,0L50,0z"/>
</g>
<g id="XMLID_113_">
	<g id="XMLID_118_">
		<path id="XMLID_93_" fill="#D61A0E" d="M50,81c-2.21,0-4-1.79-4-4V30c0-2.21,1.79-4,4-4s4,1.79,4,4v47C54,79.21,52.21,81,50,81z"
			/>
	</g>
	<g id="XMLID_179_">
		<path id="XMLID_92_" fill="#D61A0E" d="M73.35,56.92c-1.02,0-2.05-0.39-2.83-1.17L49.48,34.7L28.43,55.75
			c-1.56,1.56-4.09,1.56-5.66,0c-1.56-1.56-1.56-4.09,0-5.66l23.87-23.87c0.75-0.75,1.77-1.17,2.83-1.17s2.08,0.42,2.83,1.17
			l23.87,23.87c1.56,1.56,1.56,4.1,0,5.66C75.39,56.53,74.37,56.92,73.35,56.92z"/>
	</g>
</g>
</svg>
