<svg id="Calque_1" data-name="Calque 1" xmlns="http://www.w3.org/2000/svg" viewBox="0 0 200 200"><path d="M96.15,68.93c0,7.07,0,14.14,0,21.2,0,4.62-1.77,6.4-6.46,6.42q-20.81.09-41.61,0c-4.89,0-6.62-1.77-6.64-6.69q-.06-21,0-42c0-5.13,1.72-6.76,6.91-6.77q20.61,0,41.22,0c4.84,0,6.56,1.77,6.58,6.65C96.18,54.8,96.15,61.87,96.15,68.93Zm-10.57,17V51.67H52.2V85.9Z"/><path d="M103.89,68.83c0-7.06,0-14.13,0-21.2,0-4.69,1.75-6.53,6.29-6.54q21-.08,42,0c4.58,0,6.38,1.79,6.4,6.47q.09,21.19,0,42.4c0,4.86-1.78,6.58-6.73,6.59q-20.61.08-41.22,0c-5.13,0-6.73-1.71-6.76-6.91C103.86,82.71,103.89,75.77,103.89,68.83Zm10.57,17h33.38V51.74H114.46Z"/><path d="M96.15,131.29c0,7.07,0,14.13,0,21.2,0,4.63-1.8,6.43-6.4,6.44q-21,.06-42,0c-4.41,0-6.26-1.77-6.28-6.19q-.11-21.58,0-43.18c0-4.19,1.87-6,6-6.07q21.21-.12,42.4,0c4.57,0,6.23,1.87,6.25,6.62C96.18,117.16,96.15,124.22,96.15,131.29ZM85.58,114.18H52.2v34.09H85.58Z"/><path d="M54.26,13.37c6.8,0,13.61,0,20.42,0,4.85,0,7.91,2.69,8,6.75s-3.06,7-8.13,7c-12.7,0-25.4,0-38.1,0-6.89,0-9.27,2.35-9.28,9.14,0,13,.05,25.92-.05,38.88,0,5.9-5.63,9.56-10.11,6.46a8.79,8.79,0,0,1-3.45-6c-.28-14.26-.35-28.54,0-42.8A20.07,20.07,0,0,1,33.05,13.46c7.06-.25,14.14-.05,21.21-.05Z"/><path d="M186.65,54.35c0,6.8,0,13.61,0,20.42,0,4.8-2.78,7.87-6.84,7.89s-6.87-3.07-6.89-7.85c0-12.83,0-25.66,0-38.48,0-6.82-2.39-9.18-9.25-9.19q-19.44,0-38.88,0c-3.39,0-5.8-1.48-7-4.68a6,6,0,0,1,2.1-7.36,9.24,9.24,0,0,1,5-1.66c13.87-.12,27.75-.23,41.62,0a20.23,20.23,0,0,1,20,20.08c.19,6.94,0,13.88,0,20.82Z"/><path d="M53.93,186.65c-6.42,0-12.83.06-19.25,0-12.55-.16-21.18-8.76-21.27-21.31-.1-13.22-.05-26.44,0-39.66,0-5.16,2.63-8.27,6.82-8.3s6.9,3.11,6.92,8.21c0,12.7,0,25.4,0,38.09,0,6.83,2.39,9.2,9.22,9.21q19.44,0,38.88,0c3.78,0,6.32,1.77,7.2,5.4a6.25,6.25,0,0,1-3.56,7.51,10.68,10.68,0,0,1-4.55.82C67.54,186.69,60.73,186.65,53.93,186.65Z"/><path d="M186.65,146.1c0,6.55.09,13.09,0,19.64-.2,12.06-8.81,20.74-20.9,20.87-13.49.14-27,.07-40.45,0-4.83,0-7.89-2.76-7.91-6.83s3-6.88,7.83-6.9c12.82-.06,25.65,0,38.48,0,6.82,0,9.19-2.39,9.21-9.23q0-19.44,0-38.88c0-3.78,1.78-6.31,5.4-7.19a6.25,6.25,0,0,1,7.52,3.56,10.83,10.83,0,0,1,.81,4.55C186.7,132.49,186.66,139.29,186.65,146.1Z"/><path d="M137.85,138H124.56V124.51h13.29Z"/><path d="M141.8,155.24V141.88h13.48v13.36Z"/><path d="M107.21,141.82h13.3v13.44h-13.3Z"/><path d="M155.24,120.49H141.85V107.26h13.39Z"/><path d="M107.21,107.12h13.3V120.5h-13.3Z"/><path d="M75.51,75.53H62.15V62.12H75.51Z"/><path d="M124.61,62.06h13.33V75.53H124.61Z"/><path d="M75.55,124.5v13.38H62.12V124.5Z"/></svg>