<svg xmlns="http://www.w3.org/2000/svg" viewBox="0 0 200 200"><g id="Calque_2" data-name="Calque 2"><path d="M37.87,186.69a49.94,49.94,0,0,1-6.11-1.64c-9.79-4-16-11-18-21.54a21.07,21.07,0,0,1-.29-4Q13.36,102.71,13.36,46c0-9.06,4.26-16.15,11.35-21.57,5.22-4,11.2-5.6,17.77-5.59,29.16.05,58.32,0,87.48,0h.73a3.59,3.59,0,0,1-.29.41Q122.48,27,114.57,34.89a2.16,2.16,0,0,1-1.64.65c-22,0-43.93.14-65.9.07A17.25,17.25,0,0,0,30,52.15c0,.76.05,1.53.05,2.29q0,48.26,0,96.51c0,3.05.15,6,1.49,8.79,2.53,5.29,6.54,8.85,12.42,9.85a42.52,42.52,0,0,0,7,.26q45.78,0,91.55,0a53,53,0,0,0,8.37-.34,16.55,16.55,0,0,0,13.53-16.1q0-33.08,0-66.16a2.42,2.42,0,0,1,.74-1.87q7.83-7.82,15.61-15.66c.1-.1.22-.19.41-.36a6.09,6.09,0,0,1,.08.74c0,29.42-.21,58.85,0,88.27.09,15-11.27,25.64-23,28.13-.19,0-.37.13-.56.2Z"/><path d="M186.66,37.9c-.81,3-2.85,5.21-5.07,7.27l-5.36,5c-8.77-9-18.23-17.3-26.27-26.62,2.45-2.59,4.78-5.17,7.26-7.6a8.26,8.26,0,0,1,6.63-2.58,3.84,3.84,0,0,1,1.85.67c5.07,3.65,9.37,8.16,13.67,12.66,1.39,1.44,2.73,2.93,4.16,4.34s2.73,2.76,3.13,4.77Z"/><path d="M113,113.15l-26.43-27,58.76-58.44c8.86,9,17.67,18,26.54,27Z"/><path d="M82.59,90.11l26.85,26.46c-12.46,3.87-25,7.14-37.58,10.84C75.46,114.87,79,102.6,82.59,90.11Z"/></g></svg>