<?xml version="1.0" encoding="utf-8"?>
<!-- Generator: Adobe Illustrator 19.0.0, SVG Export Plug-In . SVG Version: 6.00 Build 0)  -->
<svg version="1.1" xmlns="http://www.w3.org/2000/svg" xmlns:xlink="http://www.w3.org/1999/xlink" x="0px" y="0px"
	 viewBox="0 0 100 100" enable-background="new 0 0 100 100" xml:space="preserve">
<g id="Calque_1" display="none">
	<g id="XMLID_80_" display="inline">
		<g id="XMLID_82_">
			
				<line id="XMLID_9_" fill="none" stroke="#D61A0E" stroke-width="8" stroke-linecap="round" stroke-linejoin="round" stroke-miterlimit="10" x1="51" y1="74" x2="51" y2="27"/>
		</g>
		
			<polyline id="XMLID_81_" fill="none" stroke="#D61A0E" stroke-width="8" stroke-linecap="round" stroke-linejoin="round" stroke-miterlimit="10" points="
			26.6,49.92 50.48,26.05 74.35,49.92 		"/>
	</g>
</g>
<g id="Calque_2" display="none">
	<g id="XMLID_114_" display="inline">
		<g id="XMLID_116_">
			
				<line id="XMLID_11_" fill="none" stroke="#01224B" stroke-width="8" stroke-linecap="round" stroke-linejoin="round" stroke-miterlimit="10" x1="50" y1="26" x2="50" y2="73"/>
		</g>
		
			<polyline id="XMLID_115_" fill="none" stroke="#01224B" stroke-width="8" stroke-linecap="round" stroke-linejoin="round" stroke-miterlimit="10" points="
			74.53,50.1 50.66,73.97 26.79,50.1 		"/>
	</g>
</g>
<g id="Calque_3" display="none">
	<g id="XMLID_775_" display="inline">
		<g id="XMLID_261_">
			
				<path id="XMLID_263_" fill="none" stroke="#01224B" stroke-width="7" stroke-linecap="round" stroke-linejoin="round" stroke-miterlimit="10" d="
				M65,40c0,8.5-8.14,11.77-8.14,19.56c0,4.88-0.73,4.44-6.86,4.44s-7.3,1-7.3-4.87C42.7,51.59,35,47,35,40c0-8.28,6.72-15,15-15
				S65,31.72,65,40z"/>
		</g>
		
			<line id="XMLID_774_" fill="none" stroke="#01224B" stroke-width="8" stroke-linecap="round" stroke-linejoin="round" stroke-miterlimit="10" x1="54" y1="74" x2="46" y2="74"/>
	</g>
</g>
<g id="Calque_4" display="none">
	<g id="XMLID_300_" display="inline">
		
			<path id="XMLID_302_" fill="none" stroke="#01224B" stroke-width="8" stroke-linecap="round" stroke-linejoin="round" stroke-miterlimit="10" d="
			M31.04,65.52c5.7,5.7,14.94,5.7,20.64,0l13.84-13.84c5.7-5.7,5.7-14.94,0-20.64"/>
	</g>
</g>
<g id="Calque_5" display="none">
	<g id="XMLID_590_" display="inline">
		
			<polyline id="XMLID_597_" fill="none" stroke="#01224B" stroke-width="7" stroke-linecap="round" stroke-linejoin="round" stroke-miterlimit="10" points="
			25,44.5 50.89,27 76,44.5 		"/>
		<g id="XMLID_593_">
			
				<line id="XMLID_596_" fill="none" stroke="#01224B" stroke-width="7" stroke-linecap="round" stroke-linejoin="round" stroke-miterlimit="10" x1="68.5" y1="45" x2="68.5" y2="73"/>
			
				<line id="XMLID_595_" fill="none" stroke="#01224B" stroke-width="7" stroke-linecap="round" stroke-linejoin="round" stroke-miterlimit="10" x1="30.5" y1="45" x2="30.5" y2="73"/>
		</g>
		
			<polyline id="XMLID_592_" fill="none" stroke="#01224B" stroke-width="7" stroke-linecap="round" stroke-linejoin="round" stroke-miterlimit="10" points="
			31,73.5 45.5,73.5 45.5,58.5 54.25,58.5 54.38,73.5 68,73.5 		"/>
		
			<line id="XMLID_591_" fill="none" stroke="#01224B" stroke-width="7" stroke-linecap="round" stroke-linejoin="round" stroke-miterlimit="10" x1="25" y1="44.5" x2="76" y2="44.5"/>
	</g>
</g>
<g id="Calque_6">
	<g id="XMLID_161_">
		<g id="XMLID_171_">
			<g id="XMLID_172_">
				<path id="XMLID_173_" fill="#01224B" d="M50,8c23.16,0,42,18.84,42,42S73.16,92,50,92S8,73.16,8,50S26.84,8,50,8 M50,0
					C22.39,0,0,22.39,0,50s22.39,50,50,50s50-22.39,50-50S77.61,0,50,0L50,0z"/>
			</g>
		</g>
		<g id="XMLID_168_">
			<g id="XMLID_162_">
				<g id="XMLID_164_">
					<circle id="XMLID_166_" fill="#D61A0E" cx="50.26" cy="28.02" r="5.24"/>
				</g>
			</g>
			<g id="XMLID_235_">
				<g id="XMLID_167_">
					<g id="XMLID_169_">
						
							<line id="XMLID_26_" fill="none" stroke="#01224B" stroke-width="8" stroke-linecap="round" stroke-linejoin="round" stroke-miterlimit="10" x1="50" y1="42" x2="50" y2="75"/>
					</g>
				</g>
			</g>
		</g>
	</g>
</g>
</svg>
