<svg id="logo_2_-_copie" data-name="logo 2 - copie" xmlns="http://www.w3.org/2000/svg" viewBox="0 0 511.32 173.73"><path d="M280.47,55.24A16.68,16.68,0,0,0,274.64,51a17.39,17.39,0,0,0-7.21-1.55,12.61,12.61,0,0,0-4.09.74,12,12,0,0,0-3.89,2.22,12.56,12.56,0,0,0-2.91,3.71,11.24,11.24,0,0,0-1.18,5.33,9,9,0,0,0,2.43,6.48,30.27,30.27,0,0,0,7.28,5.26c1.85,1.08,3.81,2.36,5.9,3.84a31,31,0,0,1,5.68,5.27,26.77,26.77,0,0,1,4.23,7,23.77,23.77,0,0,1,1.67,9.24,34,34,0,0,1-2.84,14.37,29.8,29.8,0,0,1-7.64,10.25,31.9,31.9,0,0,1-10.88,6.14,39.9,39.9,0,0,1-12.63,2,44.65,44.65,0,0,1-16.51-3,32.62,32.62,0,0,1-11.65-7.29L233,105.56a21.6,21.6,0,0,0,6.87,5.06,19.6,19.6,0,0,0,8.53,1.95,12.88,12.88,0,0,0,4.44-.81,12.63,12.63,0,0,0,3.95-2.29,10.93,10.93,0,0,0,2.78-3.64,11.11,11.11,0,0,0,1-4.86,10.82,10.82,0,0,0-2.43-7,27.38,27.38,0,0,0-8-6.14A57.29,57.29,0,0,1,244.05,84a25.81,25.81,0,0,1-5.27-5.12,25.23,25.23,0,0,1-3.68-6.75,25.51,25.51,0,0,1-1.38-8.77,32.73,32.73,0,0,1,2.49-12.81,30.87,30.87,0,0,1,6.94-10.26,32.57,32.57,0,0,1,10.68-6.81A36.76,36.76,0,0,1,267.57,31a41.83,41.83,0,0,1,15.12,2.57,26.4,26.4,0,0,1,10.4,6.74Z" transform="translate(-26.59 -25.92)" style="fill:#01224b"/><path d="M334.43,128.9,334,111H311.13l-7.36,18H281.58l42.59-95.52h26.77l5.13,95.52Zm-1-74.88h-.55L316.67,95h17.62Z" transform="translate(-26.59 -25.92)" style="fill:#01224b"/><path d="M453.6,128.9h-21l12.62-66.38h-.41L416,128.9H400.74L396.3,62.52h-.41L384.65,128.9H365.37l17.2-95.52h26.77l4.72,62.46h.55l26.78-62.46H470.8Z" transform="translate(-26.59 -25.92)" style="fill:#01224b"/><path d="M515.61,128.9l-.42-18H492.3l-7.35,18h-22.2l42.59-95.52h26.78l5.13,95.52Zm-1-74.88h-.56L497.85,95h17.62Z" transform="translate(-26.59 -25.92)" style="fill:#01224b"/><rect x="342.06" y="121.55" width="169.26" height="45.88" rx="8.83" style="fill:#d61a0e"/><path d="M418.49,184.76l.08-21.09h-.11L413,184.76h-3.64l-5.39-21.09h-.12l.08,21.09h-4.23V157.31h6.25l5.27,20.08h.15l5.16-20.08H423v27.45Z" transform="translate(-26.59 -25.92)" style="fill:#fff"/><path d="M438.07,185.45c-6.17,0-9.89-5.81-9.89-14.46s3.65-14.38,9.89-14.38S448,162.35,448,171,444.19,185.45,438.07,185.45Zm0-24.46c-3.41,0-5.08,4.38-5.08,10s1.67,10,5.08,10,5.08-4.41,5.08-10S441.4,161,438.07,161Z" transform="translate(-26.59 -25.92)" style="fill:#fff"/><path d="M465.12,184.76l-7.79-19.39h-.11l.07,19.39h-4.18V157.31h5.31l7.71,19.5h.12l0-19.5h4v27.45Z" transform="translate(-26.59 -25.92)" style="fill:#fff"/><path d="M476.63,184.76V157.31h12.29v4.11h-7.83v7.29h7.25v3.8h-7.25v8.1h8.22v4.15Z" transform="translate(-26.59 -25.92)" style="fill:#fff"/><path d="M502.76,174.25v10.51h-4.57V174.25l-6.86-16.94h5l4.1,12.25.12-.08,4.19-12.17h4.92Z" transform="translate(-26.59 -25.92)" style="fill:#fff"/><path d="M82.23,194.79A87.61,87.61,0,0,1,106.9,25.92c-33.2,19.57-72.33,61.28-.57,97.6C166.34,153.88,118,185.22,82.23,194.79Z" transform="translate(-26.59 -25.92)" style="fill:#01224b"/><path d="M201.78,113.2a87.62,87.62,0,0,1-73.33,86.44c27.73-20.37,63.05-65.81-6.79-98.25-58.15-27-11.72-58,27.24-68.62A87.57,87.57,0,0,1,201.78,113.2Z" transform="translate(-26.59 -25.92)" style="fill:#d61a0e"/></svg>