<?xml version="1.0" encoding="utf-8"?>
<!-- Generator: Adobe Illustrator 19.0.0, SVG Export Plug-In . SVG Version: 6.00 Build 0)  -->
<svg version="1.1" id="Calque_1" xmlns="http://www.w3.org/2000/svg" xmlns:xlink="http://www.w3.org/1999/xlink" x="0px" y="0px"
	 viewBox="0 0 100 100" enable-background="new 0 0 100 100" xml:space="preserve">
<g id="XMLID_183_">
	<g id="XMLID_224_">
		<g id="XMLID_195_">
			<path id="XMLID_566_" fill="#01224B" d="M50,8c23.16,0,42,18.84,42,42S73.16,92,50,92S8,73.16,8,50S26.84,8,50,8 M50,0
				C22.39,0,0,22.39,0,50s22.39,50,50,50s50-22.39,50-50S77.61,0,50,0L50,0z"/>
		</g>
	</g>
	<g id="XMLID_418_">
		<g id="XMLID_351_">
			<path id="XMLID_316_" fill="#01224B" d="M27.99,73.5c-0.8,0-1.59-0.27-2.24-0.81c-1.23-1.03-1.61-2.76-0.91-4.21l5.54-11.51
				c-3.78-3.3-5.89-7.51-5.89-11.9c0-10.41,11.28-18.57,25.68-18.57s25.68,8.16,25.68,18.57S64.57,63.64,50.17,63.64
				c-2.27,0-4.52-0.21-6.69-0.63l-13.42,9.81C29.44,73.28,28.71,73.5,27.99,73.5z M50.17,33.5c-10.13,0-18.68,5.3-18.68,11.57
				c0,2.9,1.85,5.72,5.2,7.92c1.47,0.96,2,2.86,1.23,4.45l-0.72,1.5l3.42-2.5c0.83-0.61,1.89-0.82,2.89-0.57
				c2.13,0.52,4.37,0.78,6.66,0.78c10.13,0,18.68-5.3,18.68-11.57S60.29,33.5,50.17,33.5z"/>
		</g>
		<g id="XMLID_202_">
			<circle id="XMLID_559_" fill="#D61A0E" cx="43.26" cy="45.35" r="4.31"/>
		</g>
		<g id="XMLID_396_">
			<circle id="XMLID_557_" fill="#D61A0E" cx="56.26" cy="45.35" r="4.31"/>
		</g>
	</g>
</g>
</svg>
