<?xml version="1.0" encoding="utf-8"?>
<!-- Generator: Adobe Illustrator 19.0.0, SVG Export Plug-In . SVG Version: 6.00 Build 0)  -->
<svg version="1.1" id="Calque_1" xmlns="http://www.w3.org/2000/svg" xmlns:xlink="http://www.w3.org/1999/xlink" x="0px" y="0px"
	 viewBox="0 0 100 100" enable-background="new 0 0 100 100" xml:space="preserve">
<g id="XMLID_6_">
	<path id="XMLID_565_" fill="#01224B" d="M50,8c23.16,0,42,18.84,42,42S73.16,92,50,92S8,73.16,8,50S26.84,8,50,8 M50,0
		C22.39,0,0,22.39,0,50s22.39,50,50,50s50-22.39,50-50S77.61,0,50,0L50,0z"/>
</g>
<g id="XMLID_455_">
	<path id="XMLID_503_" fill="#01224B" d="M62.46,68.73c-9.82,0-22.56-8.32-22.71-8.42c-1.83-1.24-2.3-3.73-1.05-5.56
		c1.24-1.83,3.73-2.3,5.56-1.05c5.62,3.83,16.85,8.37,20.08,6.74c1.97-1,4.38-0.21,5.38,1.76c1,1.97,0.21,4.38-1.76,5.38
		C66.32,68.39,64.45,68.73,62.46,68.73z"/>
</g>
<g id="XMLID_450_">
	<path id="XMLID_499_" fill="#01224B" d="M44.27,78.06c-10.75,0-18.13-4.42-25.08-14.84c-1.23-1.84-0.73-4.32,1.11-5.55
		c1.84-1.23,4.32-0.73,5.55,1.11C31.7,67.55,37,70.48,46.1,70.01c3.9-0.21,6.79-1.64,9.4-3.53c0.4-0.77,1.06-1.42,1.91-1.8
		c0.21-0.1,0.45-0.18,0.7-0.27c0.38-0.32,0.77-0.65,1.15-0.98c3.52-3.01,7.16-6.12,12.37-6.42c6.25-0.36,10.16-0.3,11.64,0.2
		c1.02,0.34,1.86,1.08,2.33,2.06c0.47,0.97,0.52,2.09,0.16,3.1l-2.33,6.42c-0.6,1.66-2.21,2.71-3.98,2.63
		c-6.48-0.35-14.31-0.3-17.58,0.26c-3.76,3-8.48,5.96-15.34,6.32C45.76,78.04,45.01,78.06,44.27,78.06z"/>
</g>
<g id="XMLID_452_">
	<path id="XMLID_496_" fill="#D61A0E" d="M48.33,49.33c-11.56,0-24-3.64-24-11.62c0-7.98,12.44-11.62,24-11.62s24,3.64,24,11.62
		C72.33,45.7,59.89,49.33,48.33,49.33z M32.56,37.71c1.38,1.3,6.77,3.62,15.77,3.62s14.39-2.32,15.77-3.62
		c-1.38-1.3-6.77-3.62-15.77-3.62S33.94,36.41,32.56,37.71z"/>
</g>
<g id="XMLID_38_">
	<path id="XMLID_495_" fill="#01224B" d="M52.26,76.77c-1.49,0-2.92-0.84-3.61-2.27c-0.96-1.99-0.12-4.38,1.87-5.33
		c0.59-0.34,1.22-2.01,1.2-2.98c-1.44-1.04-2.06-2.96-1.38-4.69c0.8-2.06,3.12-3.08,5.18-2.27c2.5,0.97,4.06,3.43,4.18,6.58
		c0.14,3.73-1.81,8.71-5.7,10.58C53.44,76.65,52.85,76.77,52.26,76.77z"/>
</g>
</svg>
