<svg id="Calque_1" xmlns="http://www.w3.org/2000/svg" viewBox="0 0 100 100"><path d="M50,8A42,42,0,1,1,8,50,42,42,0,0,1,50,8m0-8a50,50,0,1,0,50,50A50,50,0,0,0,50,0Z" style="fill:#01224b"/><path d="M73.9,35.1H35.1l4.7-4.5a3.47,3.47,0,0,0-4.8-5L24.2,35.9a3.41,3.41,0,0,0-1.1,2.5v.2a3.49,3.49,0,0,0,1.7,3l10,10a3.63,3.63,0,0,0,5,0,3.38,3.38,0,0,0,0-4.9l-4.6-4.6H73.8a3.54,3.54,0,0,0,3.5-3.5A3.46,3.46,0,0,0,73.9,35.1Z" style="fill:#d61a0e"/><path d="M76.7,58.8,65.9,48.1a4,4,0,0,0-5.7,5.7l3.9,3.9h-38a4,4,0,0,0,0,8H63.9l-3.7,3.5A4,4,0,0,0,63,76.1,4.3,4.3,0,0,0,65.8,75L76.7,64.6a3.78,3.78,0,0,0,1.2-2.8A4.51,4.51,0,0,0,76.7,58.8Z" style="fill:#01224b"/></svg>