<?xml version="1.0" encoding="utf-8"?>
<!-- Generator: Adobe Illustrator 19.0.0, SVG Export Plug-In . SVG Version: 6.00 Build 0)  -->
<svg version="1.1" id="Calque_1" xmlns="http://www.w3.org/2000/svg" xmlns:xlink="http://www.w3.org/1999/xlink" x="0px" y="0px"
	 viewBox="0 0 70 70" enable-background="new 0 0 70 70" xml:space="preserve">
<path id="XMLID_4_" fill="#D61A0E" d="M62.17,32.09L38.3,8.22c-0.75-0.75-1.77-1.17-2.83-1.17c-1.06,0-2.08,0.42-2.83,1.17
	L8.78,32.09c-1.56,1.56-1.56,4.09,0,5.66c1.56,1.56,4.09,1.56,5.66,0L32,20.18V59c0,2.21,1.79,4,4,4s4-1.79,4-4V21.23l16.52,16.52
	c0.78,0.78,1.8,1.17,2.83,1.17c1.02,0,2.05-0.39,2.83-1.17C63.74,36.18,63.74,33.65,62.17,32.09z"/>
</svg>
