<svg id="logo_2_-_copie" data-name="logo 2 - copie" xmlns="http://www.w3.org/2000/svg" viewBox="0 0 511.3 173.7"><path d="M280.5,55.2a16.35,16.35,0,0,0-5.8-4.2,18,18,0,0,0-7.2-1.6,12.19,12.19,0,0,0-4.1.7,12.62,12.62,0,0,0-3.9,2.2,11.93,11.93,0,0,0-2.9,3.7,11.2,11.2,0,0,0-1.2,5.3,9.16,9.16,0,0,0,2.4,6.5,29.31,29.31,0,0,0,7.3,5.3c1.8,1.1,3.8,2.4,5.9,3.8a28.5,28.5,0,0,1,5.7,5.3,27.13,27.13,0,0,1,4.2,7,24,24,0,0,1,1.7,9.2,34,34,0,0,1-2.8,14.4,30.38,30.38,0,0,1-7.6,10.3,31.62,31.62,0,0,1-10.9,6.1,41.5,41.5,0,0,1-12.6,2,44,44,0,0,1-16.5-3,33.06,33.06,0,0,1-11.7-7.3l12.6-15.5a20,20,0,0,0,6.9,5.1,19.63,19.63,0,0,0,8.5,2,13.17,13.17,0,0,0,4.4-.8,12.28,12.28,0,0,0,4-2.3,10.49,10.49,0,0,0,3.8-8.5,10.73,10.73,0,0,0-2.4-6.9,26.33,26.33,0,0,0-8-6.1c-2.1-1.2-4.2-2.5-6.2-3.9a24.34,24.34,0,0,1-10.4-20.6,31.78,31.78,0,0,1,2.5-12.8,32.13,32.13,0,0,1,6.9-10.3,32.64,32.64,0,0,1,10.7-6.8A35.92,35.92,0,0,1,267.5,31a41.92,41.92,0,0,1,15.1,2.6A27.53,27.53,0,0,1,293,40.3Z" transform="translate(-26.6 -25.9)" style="fill:#fff"/><path d="M334.4,128.9,334,111H311.1l-7.4,17.9H281.5l42.6-95.5h26.8l5.1,95.5ZM333.5,54h-.6L316.7,95h17.6Z" transform="translate(-26.6 -25.9)" style="fill:#fff"/><path d="M453.6,128.9H432.7l12.6-66.4h-.4L416,128.9H400.7l-4.4-66.4h-.4l-11.2,66.4H365.4l17.2-95.5h26.8l4.7,62.5h.6l26.8-62.5h29.4Z" transform="translate(-26.6 -25.9)" style="fill:#fff"/><path d="M515.6,128.9l-.4-17.9H492.3l-7.4,17.9H462.7l42.6-95.5h26.8l5.1,95.5Zm-1-74.9H514L497.8,95h17.6Z" transform="translate(-26.6 -25.9)" style="fill:#fff"/><path d="M529.1,193.3H377.5a8.81,8.81,0,0,1-8.8-8.8V156.3a8.81,8.81,0,0,1,8.8-8.8H529.1a8.81,8.81,0,0,1,8.8,8.8v28.2A8.81,8.81,0,0,1,529.1,193.3Z" transform="translate(-26.6 -25.9)" style="fill:#fff"/><path d="M418.5,184.8l.1-21.1h-.1L413,184.8h-3.6L404,163.7h-.1l.1,21.1h-4.2V157.4H406l5.3,20.1h.2l5.2-20.1h6.6v27.4Z" transform="translate(-26.6 -25.9)" style="fill:#d61a0e"/><path d="M438.1,185.5c-6.2,0-9.9-5.8-9.9-14.5s3.6-14.4,9.9-14.4c6.1,0,9.9,5.7,9.9,14.4S444.2,185.5,438.1,185.5Zm0-24.5c-3.4,0-5.1,4.4-5.1,10s1.7,10,5.1,10,5.1-4.4,5.1-10S441.4,161,438.1,161Z" transform="translate(-26.6 -25.9)" style="fill:#d61a0e"/><path d="M465.1,184.8l-7.8-19.4h-.1l.1,19.4h-4.2V157.4h5.3l7.7,19.5h.1V157.4h4v27.4Z" transform="translate(-26.6 -25.9)" style="fill:#d61a0e"/><path d="M476.6,184.8V157.4h12.3v4.1h-7.8v7.3h7.2v3.8h-7.2v8.1h8.2v4.1Z" transform="translate(-26.6 -25.9)" style="fill:#d61a0e"/><path d="M502.8,174.3v10.5h-4.6V174.3l-6.9-16.9h5l4.1,12.2.1-.1,4.2-12.2h4.9Z" transform="translate(-26.6 -25.9)" style="fill:#d61a0e"/><path d="M82.2,194.8A87.64,87.64,0,0,1,106.9,25.9c-33.2,19.6-72.3,61.3-.6,97.6C166.3,153.9,118,185.2,82.2,194.8Z" transform="translate(-26.6 -25.9)" style="fill:#fff"/><path d="M201.8,113.2a87.55,87.55,0,0,1-73.3,86.4c27.7-20.4,63-65.8-6.8-98.3-58.1-27-11.7-58,27.2-68.6A87.83,87.83,0,0,1,201.8,113.2Z" transform="translate(-26.6 -25.9)" style="fill:#01224b"/></svg>