<?xml version="1.0" encoding="utf-8"?>
<!-- Generator: Adobe Illustrator 19.0.0, SVG Export Plug-In . SVG Version: 6.00 Build 0)  -->
<svg version="1.1" id="Calque_1" xmlns="http://www.w3.org/2000/svg" xmlns:xlink="http://www.w3.org/1999/xlink" x="0px" y="0px"
	 viewBox="0 0 100 100" enable-background="new 0 0 100 100" xml:space="preserve">
<g id="XMLID_181_">
	<g id="XMLID_205_">
		<g id="XMLID_488_">
			<path id="XMLID_582_" fill="#01224B" d="M50,8c23.16,0,42,18.84,42,42S73.16,92,50,92S8,73.16,8,50S26.84,8,50,8 M50,0
				C22.39,0,0,22.39,0,50s22.39,50,50,50s50-22.39,50-50S77.61,0,50,0L50,0z"/>
		</g>
	</g>
	<g id="XMLID_271_">
		<g id="XMLID_364_">
			<path id="XMLID_574_" fill="#01224B" d="M50.33,49.67c-2.82,0-5.64,0.22-8.33,0.67c2.69,0.44,5.51,0.66,8.33,0.66
				s5.64-0.22,8.33-0.66C55.97,49.89,53.15,49.67,50.33,49.67z M73.56,56.84c-0.88-0.93-1.96-1.78-3.19-2.52
				c-1.2-0.74-2.54-1.39-3.98-1.94C63.72,54.08,58.3,56,50.33,56c-7.97,0-13.39-1.92-16.06-3.62c-1.44,0.55-2.78,1.2-3.98,1.94
				c-1.23,0.74-2.31,1.59-3.19,2.52c-1.76,1.82-2.77,3.99-2.77,6.49c0,8.98,13.08,13.67,26,13.67c12.92,0,26-4.69,26-13.67
				C76.33,60.83,75.32,58.66,73.56,56.84z M50.33,69c-11.81,0-18-4.21-18-5.67c0-0.47,0.65-1.23,1.93-2.04
				c1.31-0.83,3.27-1.71,5.86-2.4c2.72-0.72,6.13-1.22,10.21-1.22c4.08,0,7.49,0.5,10.21,1.22c2.59,0.69,4.55,1.57,5.86,2.4
				c1.28,0.81,1.93,1.57,1.93,2.04C68.33,64.79,62.14,69,50.33,69z"/>
		</g>
	</g>
	<g id="XMLID_272_">
		<g id="XMLID_383_">
			<path id="XMLID_568_" fill="#FFFFFF" d="M70.37,46.35c-2.03-1.97-5.5-3.58-9.83-4.57C57.82,42.5,54.41,43,50.33,43
				c-4.08,0-7.49-0.5-10.21-1.22c-4.33,0.99-7.8,2.6-9.83,4.57c-1.26,1.2-1.96,2.55-1.96,3.98c0,1.43,0.7,2.78,1.96,3.99
				c2.03,1.97,5.5,3.58,9.83,4.57C43.17,59.6,46.65,60,50.33,60s7.16-0.4,10.21-1.11c4.33-0.99,7.8-2.6,9.83-4.57
				c1.26-1.21,1.96-2.56,1.96-3.99C72.33,48.9,71.63,47.55,70.37,46.35z M50.33,56c-7.97,0-13.39-1.92-16.06-3.62
				c-1.29-0.81-1.94-1.58-1.94-2.05c0-0.47,0.65-1.23,1.93-2.04c2.34,0.91,4.97,1.59,7.74,2.05c2.69,0.44,5.51,0.66,8.33,0.66
				s5.64-0.22,8.33-0.66c2.77-0.46,5.4-1.14,7.74-2.05c1.28,0.81,1.93,1.57,1.93,2.04c0,0.47-0.65,1.24-1.94,2.05
				C63.72,54.08,58.3,56,50.33,56z"/>
		</g>
		<g id="XMLID_360_">
			<path id="XMLID_563_" fill="#D61A0E" d="M73.56,43.84c-1.74-1.84-4.23-3.33-7.17-4.46c-1.31,0.83-3.26,1.71-5.85,2.4
				C57.82,42.5,54.41,43,50.33,43c-4.08,0-7.49-0.5-10.21-1.22c-2.59-0.69-4.54-1.57-5.85-2.4c-2.94,1.13-5.43,2.62-7.17,4.46
				c-1.76,1.82-2.77,3.99-2.77,6.49c0,2.51,1.02,4.68,2.77,6.51c1.75,1.83,4.24,3.32,7.16,4.45C38.89,63.09,44.63,64,50.33,64
				s11.44-0.91,16.07-2.71c2.92-1.13,5.41-2.62,7.16-4.45c1.75-1.83,2.77-4,2.77-6.51C76.33,47.83,75.32,45.66,73.56,43.84z
				 M50.33,44.67c7.98,0,13.4,1.92,16.07,3.62c1.28,0.81,1.93,1.57,1.93,2.04c0,0.47-0.65,1.24-1.94,2.05
				C63.72,54.08,58.3,56,50.33,56c-7.97,0-13.39-1.92-16.06-3.62c-1.29-0.81-1.94-1.58-1.94-2.05c0-0.47,0.65-1.23,1.93-2.04
				C36.93,46.59,42.35,44.67,50.33,44.67z"/>
		</g>
	</g>
	<g id="XMLID_275_">
		<g id="XMLID_368_">
			<path id="XMLID_557_" fill="#01224B" d="M50.33,23.67c-12.92,0-26,4.69-26,13.66c0,2.51,1.02,4.68,2.77,6.51
				c0.89,0.93,1.96,1.77,3.19,2.51c1.2,0.74,2.53,1.38,3.97,1.94c2.34,0.91,4.97,1.59,7.74,2.05c2.69,0.44,5.51,0.66,8.33,0.66
				s5.64-0.22,8.33-0.66c2.77-0.46,5.4-1.14,7.74-2.05c1.44-0.56,2.77-1.2,3.97-1.94c1.23-0.74,2.3-1.58,3.19-2.51
				c1.75-1.83,2.77-4,2.77-6.51C76.33,28.36,63.25,23.67,50.33,23.67z M60.54,41.78C57.82,42.5,54.41,43,50.33,43
				c-4.08,0-7.49-0.5-10.21-1.22c-2.59-0.69-4.54-1.57-5.85-2.4c-1.29-0.81-1.94-1.58-1.94-2.05c0-1.45,6.19-5.66,18-5.66
				s18,4.21,18,5.66c0,0.47-0.65,1.24-1.94,2.05C65.08,40.21,63.13,41.09,60.54,41.78z"/>
		</g>
	</g>
</g>
</svg>
