<?xml version="1.0" encoding="utf-8"?>
<!-- Generator: Adobe Illustrator 19.0.0, SVG Export Plug-In . SVG Version: 6.00 Build 0)  -->
<svg version="1.1" id="Calque_1" xmlns="http://www.w3.org/2000/svg" xmlns:xlink="http://www.w3.org/1999/xlink" x="0px" y="0px"
	 viewBox="0 0 100 100" enable-background="new 0 0 100 100" xml:space="preserve">
<g id="XMLID_95_">
	<path id="XMLID_541_" fill="#01224B" d="M50,8c23.16,0,42,18.84,42,42S73.16,92,50,92S8,73.16,8,50S26.84,8,50,8 M50,0
		C22.39,0,0,22.39,0,50s22.39,50,50,50s50-22.39,50-50S77.61,0,50,0L50,0z"/>
</g>
<g id="XMLID_110_">
	<g id="XMLID_109_">
		<path id="XMLID_513_" fill="#01224B" d="M72,39H46c-2.21,0-4-1.79-4-4s1.79-4,4-4h26c2.21,0,4,1.79,4,4S74.21,39,72,39z"/>
	</g>
	<g id="XMLID_111_">
		<path id="XMLID_512_" fill="#01224B" d="M72,54H46c-2.21,0-4-1.79-4-4s1.79-4,4-4h26c2.21,0,4,1.79,4,4S74.21,54,72,54z"/>
	</g>
	<g id="XMLID_112_">
		<path id="XMLID_511_" fill="#01224B" d="M72,68H46c-2.21,0-4-1.79-4-4s1.79-4,4-4h26c2.21,0,4,1.79,4,4S74.21,68,72,68z"/>
	</g>
	<g id="XMLID_163_">
		<circle id="XMLID_533_" fill="#D61A0E" cx="32.26" cy="35.19" r="4.31"/>
	</g>
	<g id="XMLID_121_">
		<circle id="XMLID_531_" fill="#D61A0E" cx="32.26" cy="50.19" r="4.31"/>
	</g>
	<g id="XMLID_122_">
		<circle id="XMLID_529_" fill="#D61A0E" cx="32.26" cy="64.19" r="4.31"/>
	</g>
</g>
</svg>
