<?xml version="1.0" encoding="utf-8"?>
<!-- Generator: Adobe Illustrator 24.2.3, SVG Export Plug-In . SVG Version: 6.00 Build 0)  -->
<svg version="1.1" id="Calque_1" xmlns="http://www.w3.org/2000/svg" xmlns:xlink="http://www.w3.org/1999/xlink" x="0px" y="0px"
	 viewBox="0 0 100 100" style="enable-background:new 0 0 100 100;" xml:space="preserve">
<style type="text/css">
	.st0{display:none;}
	.st1{fill:#01224B;}
	.st2{fill:#D61A0E;}
</style>
<g id="Calque_2_1_" class="st0">
</g>
<g id="XMLID_2_">
	<g id="XMLID_10_">
		<g>
			<path class="st1" d="M50.32,8c23.16,0,42,18.84,42,42s-18.84,42-42,42s-42-18.84-42-42S27.16,8,50.32,8 M50.32,0
				c-27.61,0-50,22.39-50,50s22.39,50,50,50s50-22.39,50-50S77.93,0,50.32,0L50.32,0z"/>
		</g>
	</g>
	<g>
		<g>
			<path class="st1" d="M69.32,76.5h-38c-1.93,0-3.5-1.57-3.5-3.5V45.5c0-0.98,0.41-1.92,1.14-2.59l17-15.5
				c0.64-0.59,1.49-0.91,2.36-0.91h21c1.93,0,3.5,1.57,3.5,3.5v43C72.82,74.93,71.25,76.5,69.32,76.5z M34.82,69.5h31v-36H49.68
				L34.82,47.05V69.5z"/>
		</g>
		<g>
			<path class="st2" d="M48.32,48.5c-0.93,0-1.86-0.37-2.54-1.1l-17-18c-1.33-1.41-1.26-3.62,0.14-4.95
				c1.41-1.33,3.62-1.26,4.95,0.14l17,18c1.33,1.41,1.26,3.62-0.14,4.95C50.05,48.18,49.18,48.5,48.32,48.5z"/>
		</g>
		<g>
			<path class="st1" d="M58.82,66.5h-17c-1.93,0-3.5-1.57-3.5-3.5s1.57-3.5,3.5-3.5h17c1.93,0,3.5,1.57,3.5,3.5
				S60.75,66.5,58.82,66.5z"/>
		</g>
		<g>
			<path class="st1" d="M58.82,57.5h-17c-1.93,0-3.5-1.57-3.5-3.5s1.57-3.5,3.5-3.5h17c1.93,0,3.5,1.57,3.5,3.5
				S60.75,57.5,58.82,57.5z"/>
		</g>
	</g>
</g>
</svg>
