<?xml version="1.0" encoding="utf-8"?>
<!-- Generator: Adobe Illustrator 19.0.0, SVG Export Plug-In . SVG Version: 6.00 Build 0)  -->
<svg version="1.1" id="Calque_1" xmlns="http://www.w3.org/2000/svg" xmlns:xlink="http://www.w3.org/1999/xlink" x="0px" y="0px"
	 viewBox="0 0 100 100" enable-background="new 0 0 100 100" xml:space="preserve">
<g id="XMLID_419_">
	<g id="XMLID_424_">
		<path id="XMLID_567_" fill="#01224B" d="M50,8c23.16,0,42,18.84,42,42S73.16,92,50,92S8,73.16,8,50S26.84,8,50,8 M50,0
			C22.39,0,0,22.39,0,50s22.39,50,50,50s50-22.39,50-50S77.61,0,50,0L50,0z"/>
	</g>
	<g id="XMLID_420_">
		<g id="XMLID_443_">
			<path id="XMLID_313_" fill="#01224B" d="M32,61.5c-7.31,0-13.25-5.94-13.25-13.25S24.69,35,32,35s13.25,5.94,13.25,13.25
				S39.31,61.5,32,61.5z M32,42c-3.45,0-6.25,2.8-6.25,6.25s2.8,6.25,6.25,6.25s6.25-2.8,6.25-6.25S35.45,42,32,42z"/>
		</g>
		<g id="XMLID_444_">
			<path id="XMLID_270_" fill="#01224B" d="M77,52H42c-1.93,0-3.5-1.57-3.5-3.5S40.07,45,42,45h35c1.93,0,3.5,1.57,3.5,3.5
				S78.93,52,77,52z"/>
		</g>
		<g id="XMLID_445_">
			<path id="XMLID_269_" fill="#01224B" d="M64.5,63.5c-1.93,0-3.5-1.57-3.5-3.5V49c0-1.93,1.57-3.5,3.5-3.5S68,47.07,68,49v11
				C68,61.93,66.43,63.5,64.5,63.5z"/>
		</g>
		<g id="XMLID_446_">
			<path id="XMLID_268_" fill="#01224B" d="M72.5,63.5c-1.93,0-3.5-1.57-3.5-3.5V49c0-1.93,1.57-3.5,3.5-3.5S76,47.07,76,49v11
				C76,61.93,74.43,63.5,72.5,63.5z"/>
		</g>
	</g>
</g>
</svg>
