<?xml version="1.0" encoding="utf-8"?>
<!-- Generator: Adobe Illustrator 19.0.0, SVG Export Plug-In . SVG Version: 6.00 Build 0)  -->
<svg version="1.1" id="Calque_1" xmlns="http://www.w3.org/2000/svg" xmlns:xlink="http://www.w3.org/1999/xlink" x="0px" y="0px"
	 viewBox="0 0 100 100" enable-background="new 0 0 100 100" xml:space="preserve">
<g id="XMLID_42_">
	<g id="XMLID_724_">
		<g id="XMLID_240_">
			<path id="XMLID_564_" fill="#01224B" d="M50,8c23.16,0,42,18.84,42,42S73.16,92,50,92S8,73.16,8,50S26.84,8,50,8 M50,0
				C22.39,0,0,22.39,0,50s22.39,50,50,50s50-22.39,50-50S77.61,0,50,0L50,0z"/>
		</g>
	</g>
	<g id="XMLID_716_">
		<g id="XMLID_743_">
			<path id="XMLID_379_" fill="#01224B" d="M50,78c-1.39,0-2.68-0.72-3.41-1.91C37.88,61.85,31,50.61,31,41c0-10.48,8.52-19,19-19
				s19,8.52,19,19c0,8.34-5.56,17.87-12.59,29.93c-0.95,1.64-1.94,3.32-2.94,5.07c-0.71,1.22-2,1.98-3.41,2C50.04,78,50.02,78,50,78
				z M50,30c-6.07,0-11,4.93-11,11c0,6.22,4.77,14.98,10.92,25.18C56.15,55.5,61,47.04,61,41C61,34.93,56.07,30,50,30z"/>
		</g>
		<g id="XMLID_165_">
			<circle id="XMLID_557_" fill="#D61A0E" cx="50.26" cy="41.02" r="4.31"/>
		</g>
	</g>
</g>
</svg>
