<svg id="Calque_1"  xmlns="http://www.w3.org/2000/svg" viewBox="0 0 100 100"><path d="M50.32,8a42,42,0,1,1-42,42,42,42,0,0,1,42-42m0-8a50,50,0,1,0,50,50,50,50,0,0,0-50-50Z" transform="translate(-0.32)" style="fill:#01224b"/><g id="Calque_1-2" data-name="Calque 1"><path d="M70.82,37.76,58.44,25.38A4,4,0,0,0,52.78,31l5.5,5.5H56A25.36,25.36,0,0,0,30.65,61.87V73.8a4,4,0,0,0,8,0V61.87A17.35,17.35,0,0,1,56,44.54h2.39l-5.6,5.6a4,4,0,0,0,5.66,5.66L70.81,43.42A4,4,0,0,0,72,40.59,3.93,3.93,0,0,0,70.82,37.76Z" transform="translate(-0.32)" style="fill:#01224b"/></g></svg>