<?xml version="1.0" encoding="utf-8"?>
<!-- Generator: Adobe Illustrator 19.0.0, SVG Export Plug-In . SVG Version: 6.00 Build 0)  -->
<svg version="1.1" id="Calque_1" xmlns="http://www.w3.org/2000/svg" xmlns:xlink="http://www.w3.org/1999/xlink" x="0px" y="0px"
	 viewBox="0 0 100 100" enable-background="new 0 0 100 100" xml:space="preserve">
<g id="XMLID_180_">
	<path id="XMLID_7_" fill="#01224B" d="M50,8c23.16,0,42,18.84,42,42S73.16,92,50,92S8,73.16,8,50S26.84,8,50,8 M50,0
		C22.39,0,0,22.39,0,50s22.39,50,50,50s50-22.39,50-50S77.61,0,50,0L50,0z"/>
</g>
<g id="XMLID_131_">
	<g id="XMLID_153_">
		<path id="XMLID_91_" fill="#01224B" d="M49,77c-2.21,0-4-1.79-4-4V26c0-2.21,1.79-4,4-4s4,1.79,4,4v47C53,75.21,51.21,77,49,77z"
			/>
	</g>
	<g id="XMLID_1_">
		<path id="XMLID_90_" fill="#01224B" d="M49.66,77.97c-1.06,0-2.08-0.42-2.83-1.17L22.96,52.93c-1.56-1.56-1.56-4.1,0-5.66
			c1.56-1.56,4.09-1.56,5.66,0l21.04,21.04L70.7,47.27c1.56-1.56,4.09-1.56,5.66,0c1.56,1.56,1.56,4.1,0,5.66L52.48,76.8
			C51.73,77.55,50.72,77.97,49.66,77.97z"/>
	</g>
</g>
</svg>
