<?xml version="1.0" encoding="utf-8"?>
<!-- Generator: Adobe Illustrator 19.0.0, SVG Export Plug-In . SVG Version: 6.00 Build 0)  -->
<svg version="1.1" xmlns="http://www.w3.org/2000/svg" xmlns:xlink="http://www.w3.org/1999/xlink" x="0px" y="0px"
	 viewBox="0 0 70 70" enable-background="new 0 0 70 70" xml:space="preserve">
<g id="Calque_1" display="none">
	<g id="XMLID_80_" display="inline">
		<g id="XMLID_82_">
			
				<line id="XMLID_9_" fill="none" stroke="#D61A0E" stroke-width="8" stroke-linecap="round" stroke-linejoin="round" stroke-miterlimit="10" x1="36" y1="59" x2="36" y2="12"/>
		</g>
		
			<polyline id="XMLID_81_" fill="none" stroke="#D61A0E" stroke-width="8" stroke-linecap="round" stroke-linejoin="round" stroke-miterlimit="10" points="
			11.6,34.92 35.48,11.05 59.35,34.92 		"/>
	</g>
</g>
<g id="Calque_2">
	<g id="XMLID_114_">
		<g id="XMLID_116_">
			
				<line id="XMLID_11_" fill="none" stroke="#01224B" stroke-width="8" stroke-linecap="round" stroke-linejoin="round" stroke-miterlimit="10" x1="35" y1="11" x2="35" y2="58"/>
		</g>
		
			<polyline id="XMLID_115_" fill="none" stroke="#01224B" stroke-width="8" stroke-linecap="round" stroke-linejoin="round" stroke-miterlimit="10" points="
			59.53,35.1 35.66,58.97 11.79,35.1 		"/>
	</g>
</g>
<g id="Calque_3" display="none">
	<g id="XMLID_775_" display="inline">
		<g id="XMLID_261_">
			
				<path id="XMLID_263_" fill="none" stroke="#01224B" stroke-width="7" stroke-linecap="round" stroke-linejoin="round" stroke-miterlimit="10" d="
				M50,25c0,8.5-8.14,11.77-8.14,19.56c0,4.88-0.73,4.44-6.86,4.44s-7.3,1-7.3-4.87C27.7,36.59,20,32,20,25c0-8.28,6.72-15,15-15
				S50,16.72,50,25z"/>
		</g>
		
			<line id="XMLID_774_" fill="none" stroke="#01224B" stroke-width="8" stroke-linecap="round" stroke-linejoin="round" stroke-miterlimit="10" x1="39" y1="59" x2="31" y2="59"/>
	</g>
</g>
<g id="Calque_4" display="none">
	<g id="XMLID_300_" display="inline">
		
			<path id="XMLID_302_" fill="none" stroke="#01224B" stroke-width="8" stroke-linecap="round" stroke-linejoin="round" stroke-miterlimit="10" d="
			M16.04,50.52c5.7,5.7,14.94,5.7,20.64,0l13.84-13.84c5.7-5.7,5.7-14.94,0-20.64"/>
	</g>
</g>
<g id="Calque_5" display="none">
	<g id="XMLID_590_" display="inline">
		
			<polyline id="XMLID_597_" fill="none" stroke="#01224B" stroke-width="7" stroke-linecap="round" stroke-linejoin="round" stroke-miterlimit="10" points="
			10,29.5 35.89,12 61,29.5 		"/>
		<g id="XMLID_593_">
			
				<line id="XMLID_596_" fill="none" stroke="#01224B" stroke-width="7" stroke-linecap="round" stroke-linejoin="round" stroke-miterlimit="10" x1="53.5" y1="30" x2="53.5" y2="58"/>
			
				<line id="XMLID_595_" fill="none" stroke="#01224B" stroke-width="7" stroke-linecap="round" stroke-linejoin="round" stroke-miterlimit="10" x1="15.5" y1="30" x2="15.5" y2="58"/>
		</g>
		
			<polyline id="XMLID_592_" fill="none" stroke="#01224B" stroke-width="7" stroke-linecap="round" stroke-linejoin="round" stroke-miterlimit="10" points="
			16,58.5 30.5,58.5 30.5,43.5 39.25,43.5 39.38,58.5 53,58.5 		"/>
		
			<line id="XMLID_591_" fill="none" stroke="#01224B" stroke-width="7" stroke-linecap="round" stroke-linejoin="round" stroke-miterlimit="10" x1="10" y1="29.5" x2="61" y2="29.5"/>
	</g>
</g>
</svg>
