<svg id="Calque_1"  xmlns="http://www.w3.org/2000/svg" viewBox="0 0 52 53.33"><path d="M35,34.33a50.8,50.8,0,0,0-8.33.67,51.93,51.93,0,0,0,8.33.66A51.93,51.93,0,0,0,43.33,35,50.8,50.8,0,0,0,35,34.33Zm23.23,7.18A15.14,15.14,0,0,0,55,39a23.7,23.7,0,0,0-4-1.93C48.39,38.75,43,40.66,35,40.66s-13.39-1.91-16.06-3.61A24.49,24.49,0,0,0,15,39a15.14,15.14,0,0,0-3.19,2.53A9.14,9.14,0,0,0,9,48c0,9,13.08,13.66,26,13.66S61,57,61,48A9.14,9.14,0,0,0,58.23,41.51ZM35,53.66c-11.81,0-18-4.2-18-5.66,0-.47.65-1.23,1.93-2a21.44,21.44,0,0,1,5.86-2.41A40,40,0,0,1,35,42.33a40,40,0,0,1,10.21,1.22A21.13,21.13,0,0,1,51.07,46c1.28.81,1.93,1.57,1.93,2C53,49.46,46.81,53.66,35,53.66Z" transform="translate(-9 -8.34)" style="fill:#01224b"/><path d="M55,31c-2-2-5.5-3.58-9.83-4.57A40,40,0,0,1,35,27.66a40,40,0,0,1-10.21-1.22C20.46,27.44,17,29,15,31a5.54,5.54,0,0,0-2,4,5.58,5.58,0,0,0,2,4c2,2,5.5,3.59,9.83,4.57A45.5,45.5,0,0,0,35,44.66a45.5,45.5,0,0,0,10.21-1.11C49.54,42.56,53,41,55,39a5.56,5.56,0,0,0,2-4A5.56,5.56,0,0,0,55,31ZM35,40.66c-8,0-13.39-1.91-16.06-3.61C17.65,36.23,17,35.46,17,35s.65-1.23,1.93-2a39.28,39.28,0,0,0,7.74,2,53.11,53.11,0,0,0,8.33.65A53.11,53.11,0,0,0,43.33,35a39.28,39.28,0,0,0,7.74-2c1.28.81,1.93,1.57,1.93,2s-.65,1.24-1.94,2C48.39,38.75,43,40.66,35,40.66Z" transform="translate(-9 -8.34)" style="fill:#fff"/><path d="M58.23,28.51a19.26,19.26,0,0,0-7.17-4.46,21.39,21.39,0,0,1-5.85,2.4A40.55,40.55,0,0,1,35,27.66a40,40,0,0,1-10.21-1.22A21.08,21.08,0,0,1,18.94,24a19.39,19.39,0,0,0-7.17,4.46,9,9,0,0,0,0,13A19.71,19.71,0,0,0,18.93,46,45.42,45.42,0,0,0,35,48.66,45.65,45.65,0,0,0,51.07,46a19.85,19.85,0,0,0,7.16-4.45A9.26,9.26,0,0,0,61,35,9.14,9.14,0,0,0,58.23,28.51ZM35,29.33c8,0,13.4,1.92,16.07,3.62,1.28.81,1.93,1.57,1.93,2s-.65,1.24-1.94,2C48.39,38.75,43,40.66,35,40.66s-13.39-1.91-16.06-3.61C17.65,36.23,17,35.46,17,35s.65-1.23,1.93-2C21.6,31.26,27,29.33,35,29.33Z" transform="translate(-9 -8.34)" style="fill:#d61a0e"/><path d="M35,8.34C22.08,8.34,9,13,9,22a9.24,9.24,0,0,0,2.77,6.51A15.33,15.33,0,0,0,15,31a24.4,24.4,0,0,0,4,1.94,39.28,39.28,0,0,0,7.74,2,53.11,53.11,0,0,0,8.33.65A53.11,53.11,0,0,0,43.33,35a39.28,39.28,0,0,0,7.74-2A25.25,25.25,0,0,0,55,31a15.33,15.33,0,0,0,3.19-2.51A9.24,9.24,0,0,0,61,22C61,13,47.92,8.34,35,8.34Zm10.21,18.1A40,40,0,0,1,35,27.66a40,40,0,0,1-10.21-1.22A21.08,21.08,0,0,1,18.94,24C17.65,23.23,17,22.46,17,22c0-1.45,6.19-5.66,18-5.66S53,20.54,53,22c0,.47-.65,1.24-1.94,2.05A21.08,21.08,0,0,1,45.21,26.44Z" transform="translate(-9 -8.34)" style="fill:#01224b"/></svg>