<svg id="Calque_1"  xmlns="http://www.w3.org/2000/svg" viewBox="0 0 100 100"><path d="M50,8A42,42,0,1,1,8,50,42,42,0,0,1,50,8m0-8a50,50,0,1,0,50,50A50,50,0,0,0,50,0Z" transform="translate(0 0)" style="fill:#01224b"/><g id="Calque_1-2" ><path d="M70.16,47.54c-6,.4-11.3-1.61-12.86-8.07-3.3-.83-9.18-1.36-14,2.08s-5.95,14.85-.1,17.64c7.57,3.63,17,1.32,16.23,6.17s-5.7,11.5-3.34,16.36,10.44.26,11.5-1.54S75,75,75.85,70.74c.67-3.35,8.6-3.23,8.6-10.11-5.09.12-9.59-1.86-10.54-4.33S70.16,47.54,70.16,47.54Z" transform="translate(0 0)" style="fill:#01224b"/><path d="M57.54,14.84c.33,2,.82,4.09.38,5.18-.93,2.24-5.29,1.79-6.05,3.19s-4.54,1.5-5.33,3.77a61,61,0,0,0-1.86,11.55c.12,1.23,5.34-5.21,11-4,2.88.62,4.38-2.06,4.72-3.8s.09-5.44,1.69-4.33,3,5.25.92,6.5-4.32,3.59-1.13,5.19,8.45,3.71,8.67,5.09,4.64,11.9,6.74,12.54,5.79,4.81,6.38,3c.43-1.3-.24-5.25,2.21-7.42V49.85A35.84,35.84,0,0,0,57.54,14.84Z" transform="translate(0 0)" style="fill:#01224b"/><path d="M14.79,43.6a58.58,58.58,0,0,1,8.35-5.3c4-2.14,3-10,5.1-11.86s3.91,1.42,6.63,0,.72-5.57,2.38-7.34,7.66-2.37,5.44-4.15l-.13-.09A35.86,35.86,0,0,0,14.79,43.6Z" transform="translate(0 0)" style="fill:#01224b"/><path d="M35.44,82.63c-1.49-2-2.17-4.44-3.32-7.15-1.66-3.94,1.42-5,.6-7.8S27,65.83,25.14,61.4c-1.7-3.93-7.29-4.81-10.48-5.89a35.51,35.51,0,0,0,5.48,14.12c1,.85,2.14,1.62,3.21,2.55,1.43,1.26,2.42,3.4,4.41,5.78A35.83,35.83,0,0,0,35.44,82.63Z" transform="translate(0 0)" style="fill:#01224b"/></g></svg>